<?xml version="1.0" encoding="UTF-8" standalone="no"?>
<!-- Created with Inkscape (http://www.inkscape.org/) -->

<svg
   xmlns:dc="http://purl.org/dc/elements/1.1/"
   xmlns:cc="http://creativecommons.org/ns#"
   xmlns:rdf="http://www.w3.org/1999/02/22-rdf-syntax-ns#"
   xmlns:svg="http://www.w3.org/2000/svg"
   xmlns="http://www.w3.org/2000/svg"
   xmlns:sodipodi="http://sodipodi.sourceforge.net/DTD/sodipodi-0.dtd"
   xmlns:inkscape="http://www.inkscape.org/namespaces/inkscape"
   width="115.68235mm"
   height="59.571785mm"
   viewBox="0 0 115.68235 59.571785"
   version="1.1"
   id="svg8"
   inkscape:version="0.92.4 (5da689c313, 2019-01-14)"
   sodipodi:docname="GBIC.svg">
  <defs
     id="defs2" />
  <sodipodi:namedview
     id="base"
     pagecolor="#ffffff"
     bordercolor="#666666"
     borderopacity="1.0"
     inkscape:pageopacity="0.0"
     inkscape:pageshadow="2"
     inkscape:zoom="2.8"
     inkscape:cx="131.64383"
     inkscape:cy="116.56455"
     inkscape:document-units="mm"
     inkscape:current-layer="layer1"
     showgrid="false"
     inkscape:window-width="1920"
     inkscape:window-height="1016"
     inkscape:window-x="0"
     inkscape:window-y="27"
     inkscape:window-maximized="1"
     fit-margin-top="0"
     fit-margin-left="0"
     fit-margin-right="0"
     fit-margin-bottom="0" />
  <metadata
     id="metadata5">
    <rdf:RDF>
      <cc:Work
         rdf:about="">
        <dc:format>image/svg+xml</dc:format>
        <dc:type
           rdf:resource="http://purl.org/dc/dcmitype/StillImage" />
        <dc:title />
      </cc:Work>
    </rdf:RDF>
  </metadata>
  <g
     inkscape:label="Layer 1"
     inkscape:groupmode="layer"
     id="layer1"
     transform="translate(-25.823855,-67.500934)">
    <ellipse
       style="fill:#e082d4;fill-opacity:1;stroke:none;stroke-width:0.36061823;stroke-miterlimit:4;stroke-dasharray:none;stroke-opacity:1"
       id="path815-3"
       cx="51.329163"
       cy="107.40716"
       rx="2.4568453"
       ry="2.456845" />
    <rect
       style="fill:#e082d4;fill-opacity:1;stroke:none;stroke-width:0.51300001;stroke-miterlimit:4;stroke-dasharray:none;stroke-opacity:1"
       id="rect838"
       width="4.5357141"
       height="4.5357141"
       x="111.88095"
       y="70.025299" />
    <rect
       style="fill:#e082d4;fill-opacity:1;stroke:none;stroke-width:0.51300001;stroke-miterlimit:4;stroke-dasharray:none;stroke-opacity:1"
       id="rect838-7"
       width="4.5357141"
       height="4.5357141"
       x="118.57114"
       y="76.639877" />
    <path
       sodipodi:type="star"
       style="fill:#e082d4;fill-opacity:1;stroke:none;stroke-width:0.51300001;stroke-miterlimit:4;stroke-dasharray:none;stroke-opacity:1"
       id="path855"
       sodipodi:sides="5"
       sodipodi:cx="127.18899"
       sodipodi:cy="100.64137"
       sodipodi:r1="2.4202285"
       sodipodi:r2="1.2101142"
       sodipodi:arg1="0.89605538"
       sodipodi:arg2="1.5243739"
       inkscape:flatsided="true"
       inkscape:rounded="0"
       inkscape:randomized="0"
       d="m 128.70089,102.53125 -2.84208,0.13203 -1.00382,-2.66218 2.22169,-1.777348 2.3769,1.563719 z"
       inkscape:transform-center-x="0.043262472"
       inkscape:transform-center-y="-0.24838783"
       transform="matrix(1.2465819,0,0,1.2554162,-30.786976,-25.087934)" />
    <path
       sodipodi:type="star"
       style="fill:#e082d4;fill-opacity:1;stroke:none;stroke-width:0.51300001;stroke-miterlimit:4;stroke-dasharray:none;stroke-opacity:1"
       id="path855-5"
       sodipodi:sides="5"
       sodipodi:cx="127.18899"
       sodipodi:cy="100.64137"
       sodipodi:r1="2.4202285"
       sodipodi:r2="1.2101142"
       sodipodi:arg1="0.89605538"
       sodipodi:arg2="1.5243739"
       inkscape:flatsided="true"
       inkscape:rounded="0"
       inkscape:randomized="0"
       d="m 128.70089,102.53125 -2.84208,0.13203 -1.00382,-2.66218 2.22169,-1.777348 2.3769,1.563719 z"
       inkscape:transform-center-x="0.043262472"
       inkscape:transform-center-y="-0.24838783"
       transform="matrix(1.2465819,0,0,1.2554162,-36.195133,-17.973124)" />
    <path
       sodipodi:type="star"
       style="fill:#e082d4;fill-opacity:1;stroke:none;stroke-width:0.51300001;stroke-miterlimit:4;stroke-dasharray:none;stroke-opacity:1"
       id="path855-3"
       sodipodi:sides="5"
       sodipodi:cx="127.18899"
       sodipodi:cy="100.64137"
       sodipodi:r1="2.4202285"
       sodipodi:r2="1.2101142"
       sodipodi:arg1="0.89605538"
       sodipodi:arg2="1.5243739"
       inkscape:flatsided="true"
       inkscape:rounded="0"
       inkscape:randomized="0"
       d="m 128.70089,102.53125 -2.84208,0.13203 -1.00382,-2.66218 2.22169,-1.777348 2.3769,1.563719 z"
       inkscape:transform-center-x="0.043262472"
       inkscape:transform-center-y="-0.24838783"
       transform="matrix(1.2465819,0,0,1.2554162,-25.687395,-18.3511)" />
    <ellipse
       style="fill:#e082d4;fill-opacity:1;stroke:none;stroke-width:0.36061823;stroke-miterlimit:4;stroke-dasharray:none;stroke-opacity:1"
       id="path815-3-5"
       cx="61.421131"
       cy="108.76786"
       rx="2.4568453"
       ry="2.456845" />
    <ellipse
       style="fill:#e082d4;fill-opacity:1;stroke:none;stroke-width:0.36061823;stroke-miterlimit:4;stroke-dasharray:none;stroke-opacity:1"
       id="path815-3-6"
       cx="59.720242"
       cy="117.27232"
       rx="2.4568453"
       ry="2.456845" />
    <path
       id="path910"
       inkscape:label="Triangle"
       style="fill:#e082d4;fill-opacity:1;stroke:none;stroke-width:0.12807181;stroke-opacity:1"
       d="m 28.701306,116.83655 h 6.425596 l -3.212798,-5.52668 z"
       inkscape:connector-curvature="0" />
    <path
       id="path910-2"
       inkscape:label="Triangle"
       style="fill:#e082d4;fill-opacity:1;stroke:none;stroke-width:0.12807181;stroke-opacity:1"
       d="m 34.395833,123.05947 h 6.425596 l -3.212798,-5.52668 z"
       inkscape:connector-curvature="0" />
    <ellipse
       style="fill:none;fill-opacity:1;stroke:#4496dd;stroke-width:0.51300001;stroke-miterlimit:4;stroke-dasharray:none;stroke-opacity:1"
       id="path957"
       cx="115.47172"
       cy="76.356392"
       rx="13.418155"
       ry="8.598958" />
    <ellipse
       style="fill:none;fill-opacity:1;stroke:#4496dd;stroke-width:0.51300001;stroke-miterlimit:4;stroke-dasharray:none;stroke-opacity:1"
       id="path957-9"
       cx="127.83155"
       cy="105.55508"
       rx="13.418155"
       ry="8.598958" />
    <ellipse
       style="fill:none;fill-opacity:1;stroke:#4496dd;stroke-width:0.41305742;stroke-miterlimit:4;stroke-dasharray:none;stroke-opacity:1"
       id="path957-1"
       cx="34.679314"
       cy="118.21726"
       rx="8.6489296"
       ry="8.6489286" />
    <ellipse
       style="fill:none;fill-opacity:1;stroke:#4496dd;stroke-width:0.51300001;stroke-miterlimit:4;stroke-dasharray:none;stroke-opacity:1"
       id="path957-2"
       cx="57.452381"
       cy="111.64048"
       rx="13.418155"
       ry="8.598958" />
    <path
       style="fill:none;stroke:#e082d4;stroke-width:0.565;stroke-linecap:butt;stroke-linejoin:miter;stroke-miterlimit:4;stroke-dasharray:none;stroke-opacity:1"
       d="M 57.471293,92.584192 36.814882,109.75058"
       id="path986"
       inkscape:connector-curvature="0"
       sodipodi:nodetypes="cc" />
    <path
       style="fill:none;stroke:#e082d4;stroke-width:0.56500006;stroke-linecap:butt;stroke-linejoin:miter;stroke-miterlimit:4;stroke-dasharray:none;stroke-opacity:1"
       d="M 102.23894,78.018002 86.453347,94.631588"
       id="path986-7"
       inkscape:connector-curvature="0"
       sodipodi:nodetypes="cc" />
    <path
       style="fill:none;stroke:#e082d4;stroke-width:0.56500006;stroke-linecap:butt;stroke-linejoin:miter;stroke-miterlimit:4;stroke-dasharray:none;stroke-opacity:1"
       d="M 114.26607,104.07678 86.453347,94.631588"
       id="path986-0"
       inkscape:connector-curvature="0"
       sodipodi:nodetypes="cc" />
    <path
       style="fill:none;stroke:#e082d4;stroke-width:0.56500006;stroke-linecap:butt;stroke-linejoin:miter;stroke-miterlimit:4;stroke-dasharray:none;stroke-opacity:1"
       d="m 57.471293,92.584192 1.720563,10.199118"
       id="path986-9"
       inkscape:connector-curvature="0"
       sodipodi:nodetypes="cc" />
    <path
       style="fill:none;stroke:#e082d4;stroke-width:0.56500006;stroke-linecap:butt;stroke-linejoin:miter;stroke-miterlimit:4;stroke-dasharray:none;stroke-opacity:1"
       d="M 67.109685,72.362469 57.471293,92.584192"
       id="path986-3"
       inkscape:connector-curvature="0" />
    <path
       style="fill:none;stroke:#e082d4;stroke-width:0.56500006;stroke-linecap:butt;stroke-linejoin:miter;stroke-miterlimit:4;stroke-dasharray:none;stroke-opacity:1"
       d="M 86.453347,94.631588 66.97605,72.362469"
       id="path986-6"
       inkscape:connector-curvature="0"
       sodipodi:nodetypes="cc" />
    <ellipse
       style="fill:#4496dd;fill-opacity:1;stroke:none;stroke-width:0.56499994;stroke-miterlimit:4;stroke-dasharray:none;stroke-opacity:1"
       id="path1036"
       cx="86.619492"
       cy="94.255562"
       rx="0.8018086"
       ry="0.86862594" />
    <ellipse
       style="fill:#4496dd;fill-opacity:1;stroke:none;stroke-width:0.565;stroke-miterlimit:4;stroke-dasharray:none;stroke-opacity:1"
       id="path1036-0"
       cx="57.603573"
       cy="92.798363"
       rx="0.8018086"
       ry="0.86862594" />
    <ellipse
       style="fill:#4496dd;fill-opacity:1;stroke:none;stroke-width:0.565;stroke-miterlimit:4;stroke-dasharray:none;stroke-opacity:1"
       id="path1036-6"
       cx="66.996277"
       cy="72.38765"
       rx="0.8018086"
       ry="0.86862594" />
    <ellipse
       style="fill:none;fill-opacity:1;stroke:#4496dd;stroke-width:0.396;stroke-miterlimit:4;stroke-dasharray:none;stroke-opacity:1"
       id="path957-2-3"
       cx="30.690298"
       cy="71.708656"
       rx="2.428973"
       ry="1.6730204" />
    <text
       xml:space="preserve"
       style="font-style:normal;font-weight:normal;font-size:3.22151804px;line-height:0.85000002;font-family:sans-serif;letter-spacing:0px;word-spacing:0px;fill:#000000;fill-opacity:1;stroke:none;stroke-width:0.15100865"
       x="35.677658"
       y="81.230186"
       id="text852"
       transform="scale(0.96609125,1.0350989)"><tspan
         sodipodi:role="line"
         id="tspan850"
         x="35.677658"
         y="81.230186"
         style="font-style:italic;font-variant:normal;font-weight:normal;font-stretch:normal;line-height:0.85000002;font-family:'CMU Sans Serif';-inkscape-font-specification:'CMU Sans Serif Italic';stroke-width:0.15100865">clustering tree</tspan><tspan
         sodipodi:role="line"
         x="35.677658"
         y="84.117424"
         style="font-style:italic;font-variant:normal;font-weight:normal;font-stretch:normal;line-height:0.85000002;font-family:'CMU Sans Serif';-inkscape-font-specification:'CMU Sans Serif Italic';stroke-width:0.15100865"
         id="tspan869">relationship</tspan></text>
    <ellipse
       style="fill:#4496dd;fill-opacity:1;stroke:none;stroke-width:0.56500006;stroke-miterlimit:4;stroke-dasharray:none;stroke-opacity:1"
       id="path1036-0-7"
       cx="30.737547"
       cy="77.652336"
       rx="0.8018086"
       ry="0.86862594" />
    <path
       style="fill:none;stroke:#e082d4;stroke-width:0.56500006;stroke-linecap:butt;stroke-linejoin:miter;stroke-miterlimit:4;stroke-dasharray:none;stroke-opacity:1"
       d="m 28.459854,84.137744 4.649878,-0.0062"
       id="path986-9-2"
       inkscape:connector-curvature="0"
       sodipodi:nodetypes="cc" />
    <text
       xml:space="preserve"
       style="font-style:normal;font-weight:normal;font-size:3.22151804px;line-height:0.75;font-family:sans-serif;letter-spacing:0px;word-spacing:0px;fill:#000000;fill-opacity:1;stroke:none;stroke-width:0.15100865"
       x="36.0382"
       y="75.856651"
       id="text852-5"
       transform="scale(0.96609126,1.0350989)"><tspan
         sodipodi:role="line"
         x="36.0382"
         y="75.856651"
         style="font-style:italic;font-variant:normal;font-weight:normal;font-stretch:normal;line-height:0.75;font-family:'CMU Sans Serif';-inkscape-font-specification:'CMU Sans Serif Italic';stroke-width:0.15100865"
         id="tspan869-7">a cluster</tspan></text>
    <g
       id="g1448"
       transform="matrix(0.89735567,0,0,0.84065701,35.454092,28.83282)">
      <g
         word-spacing="normal"
         letter-spacing="normal"
         font-size-adjust="none"
         font-stretch="normal"
         font-weight="normal"
         font-variant="normal"
         font-style="normal"
         stroke-miterlimit="10.433"
         xml:space="preserve"
         transform="matrix(0.08510255,0,0,-0.08510255,-14.892946,86.761763)"
         id="content"
         style="font-style:normal;font-variant:normal;font-weight:normal;font-stretch:normal;letter-spacing:normal;word-spacing:normal;text-anchor:start;fill:none;fill-opacity:1;fill-rule:evenodd;stroke:#000000;stroke-linecap:butt;stroke-linejoin:miter;stroke-miterlimit:10.43299961;stroke-dasharray:none;stroke-dashoffset:0;stroke-opacity:1"><path
           id="path1441"
           d="m 491.39,439.03 0.01,0.04 0.01,0.04 0.01,0.04 0.02,0.04 0.01,0.04 0.01,0.05 0.01,0.04 0.01,0.05 0.01,0.04 0.01,0.05 0.01,0.05 0.01,0.05 0.01,0.05 v 0.06 0.05 0.03 l 0.01,0.03 c 0,0.45 -0.25,0.45 -1.24,0.45 h -21.03 c -1.19,0 -1.25,-0.05 -1.55,-1 l -2.73,-8.97 c -0.11,-0.25 -0.16,-0.59 -0.16,-0.7 0,-0.05 0,-0.55 0.61,-0.55 0.44,0 0.55,0.36 0.64,0.5 1.89,5.89 4.49,9.17 12.25,9.17 h 8.13 l -27.85,-31.14 c 0,-0.04 -0.2,-0.75 -0.2,-0.89 0,-0.45 0.34,-0.45 1.25,-0.45 h 21.67 c 1.19,0 1.24,0.05 1.55,1 l 3.53,11 c 0.05,0.2 0.2,0.56 0.2,0.75 0,0.25 -0.2,0.55 -0.65,0.55 -0.44,0 -0.5,-0.19 -0.85,-1.24 -2.18,-6.78 -4.57,-10.37 -13.04,-10.37 h -8.53 z"
           inkscape:connector-curvature="0"
           style="fill:#000000;stroke-width:0" /><path
           id="path1443"
           d="m 500.78,420.54 v 0.05 l -0.01,0.06 v 0.05 l -0.01,0.06 -0.01,0.05 -0.02,0.06 -0.02,0.05 -0.01,0.06 -0.03,0.06 -0.02,0.05 -0.03,0.06 -0.03,0.05 -0.03,0.06 -0.04,0.05 -0.04,0.05 -0.04,0.05 -0.04,0.05 -0.05,0.05 -0.05,0.04 -0.05,0.05 -0.06,0.04 -0.06,0.03 -0.06,0.04 -0.06,0.03 -0.07,0.03 -0.07,0.03 -0.08,0.02 -0.08,0.02 -0.08,0.01 -0.08,0.01 -0.09,0.01 h -0.09 c -0.94,0 -1.95,-0.91 -1.95,-1.92 0,-0.59 0.45,-1.33 1.4,-1.33 1,0 1.96,0.99 1.96,1.92 z"
           inkscape:connector-curvature="0"
           style="fill:#000000;stroke-width:0" /><path
           id="path1445"
           d="m 493.67,402.84 -0.06,-0.17 -0.05,-0.17 -0.03,-0.08 -0.02,-0.09 -0.03,-0.08 -0.02,-0.09 -0.02,-0.09 -0.02,-0.09 -0.02,-0.1 -0.02,-0.09 -0.01,-0.1 v -0.05 l -0.01,-0.05 v -0.06 -0.05 -0.05 -0.06 c 0,-1.64 1.39,-2.95 3.29,-2.95 3.49,0 5.03,4.79 5.03,5.33 0,0.45 -0.45,0.45 -0.56,0.45 -0.48,0 -0.53,-0.2 -0.67,-0.59 -0.8,-2.79 -2.33,-4.22 -3.69,-4.22 -0.7,0 -0.87,0.45 -0.87,1.22 0,0.79 0.25,1.46 0.56,2.23 0.34,0.94 0.73,1.87 1.11,2.78 0.31,0.84 1.58,4.02 1.72,4.44 0.09,0.34 0.2,0.76 0.2,1.11 0,1.64 -1.39,2.95 -3.31,2.95 -3.46,0 -5.05,-4.73 -5.05,-5.33 0,-0.45 0.49,-0.45 0.59,-0.45 0.49,0 0.52,0.17 0.63,0.56 0.91,3 2.44,4.25 3.72,4.25 0.56,0 0.87,-0.28 0.87,-1.22 0,-0.79 -0.2,-1.32 -1.07,-3.48 z"
           inkscape:connector-curvature="0"
           style="fill:#000000;stroke-width:0" /></g>    </g>
    <text
       xml:space="preserve"
       style="font-style:normal;font-weight:normal;font-size:3.22151804px;line-height:0.75;font-family:sans-serif;letter-spacing:0px;word-spacing:0px;fill:#000000;fill-opacity:1;stroke:none;stroke-width:0.15100865"
       x="35.930294"
       y="70.002968"
       id="text852-5-3"
       transform="scale(0.96609126,1.0350989)"><tspan
         sodipodi:role="line"
         x="35.930294"
         y="70.002968"
         style="font-style:italic;font-variant:normal;font-weight:normal;font-stretch:normal;line-height:0.75;font-family:'CMU Sans Serif';-inkscape-font-specification:'CMU Sans Serif Italic';stroke-width:0.15100865"
         id="tspan869-7-6">random variable</tspan></text>
    <g
       id="g1522"
       transform="matrix(0.64973027,0,0,0.67870122,97.367024,48.439534)">
      <g
         word-spacing="normal"
         letter-spacing="normal"
         font-size-adjust="none"
         font-stretch="normal"
         font-weight="normal"
         font-variant="normal"
         font-style="normal"
         stroke-miterlimit="10.433"
         xml:space="preserve"
         transform="matrix(0.08510255,0,0,-0.08510255,-14.892946,86.761763)"
         id="g1520"
         style="font-style:normal;font-variant:normal;font-weight:normal;font-stretch:normal;letter-spacing:normal;word-spacing:normal;text-anchor:start;fill:none;fill-opacity:1;fill-rule:evenodd;stroke:#000000;stroke-linecap:butt;stroke-linejoin:miter;stroke-miterlimit:10.43299961;stroke-dasharray:none;stroke-dashoffset:0;stroke-opacity:1"><path
           id="path1516"
           d="m 491.39,439.03 0.01,0.04 0.01,0.04 0.01,0.04 0.02,0.04 0.01,0.04 0.01,0.05 0.01,0.04 0.01,0.05 0.01,0.04 0.01,0.05 0.01,0.05 0.01,0.05 0.01,0.05 v 0.06 0.05 0.03 l 0.01,0.03 c 0,0.45 -0.25,0.45 -1.24,0.45 h -21.03 c -1.19,0 -1.25,-0.05 -1.55,-1 l -2.73,-8.97 c -0.11,-0.25 -0.16,-0.59 -0.16,-0.7 0,-0.05 0,-0.55 0.61,-0.55 0.44,0 0.55,0.36 0.64,0.5 1.89,5.89 4.49,9.17 12.25,9.17 h 8.13 l -27.85,-31.14 c 0,-0.04 -0.2,-0.75 -0.2,-0.89 0,-0.45 0.34,-0.45 1.25,-0.45 h 21.67 c 1.19,0 1.24,0.05 1.55,1 l 3.53,11 c 0.05,0.2 0.2,0.56 0.2,0.75 0,0.25 -0.2,0.55 -0.65,0.55 -0.44,0 -0.5,-0.19 -0.85,-1.24 -2.18,-6.78 -4.57,-10.37 -13.04,-10.37 h -8.53 z"
           inkscape:connector-curvature="0"
           style="fill:#000000;stroke-width:0" /><path
           id="path1518"
           d="m 501.15,420.92 v 0.04 0.04 0.05 0.04 0.03 0.04 0.04 0.03 0.04 l -0.01,0.03 v 0.03 0.03 0.03 l -0.01,0.03 v 0.03 0.02 l -0.01,0.03 v 0.02 l -0.01,0.03 v 0.02 l -0.01,0.04 -0.02,0.04 -0.02,0.03 -0.02,0.03 -0.02,0.03 -0.02,0.03 -0.03,0.02 -0.03,0.02 -0.03,0.02 -0.04,0.01 -0.04,0.01 -0.05,0.02 h -0.02 -0.02 l -0.03,0.01 h -0.03 l -0.02,0.01 h -0.03 -0.03 -0.03 -0.03 l -0.04,0.01 h -0.03 -0.04 -0.03 -0.04 -0.04 -0.04 -0.04 -0.05 -0.04 -0.04 c -2.24,-2.2 -5.4,-2.23 -6.83,-2.23 v -1.25 c 0.84,0 3.14,0 5.04,0.97 v -17.77 c 0,-1.16 0,-1.61 -3.48,-1.61 h -1.31 v -1.25 c 0.62,0.03 4.9,0.14 6.2,0.14 1.08,0 5.47,-0.11 6.23,-0.14 v 1.25 h -1.32 c -3.49,0 -3.49,0.45 -3.49,1.61 z"
           inkscape:connector-curvature="0"
           style="fill:#000000;stroke-width:0" /></g>    </g>
    <g
       id="g1581"
       transform="matrix(0.72617632,0,0,0.75902591,99.775461,63.113989)">
      <g
         word-spacing="normal"
         letter-spacing="normal"
         font-size-adjust="none"
         font-stretch="normal"
         font-weight="normal"
         font-variant="normal"
         font-style="normal"
         stroke-miterlimit="10.433"
         xml:space="preserve"
         transform="matrix(0.08510255,0,0,-0.08510255,-14.892946,86.761763)"
         id="g1579"
         style="font-style:normal;font-variant:normal;font-weight:normal;font-stretch:normal;letter-spacing:normal;word-spacing:normal;text-anchor:start;fill:none;fill-opacity:1;fill-rule:evenodd;stroke:#000000;stroke-linecap:butt;stroke-linejoin:miter;stroke-miterlimit:10.43299961;stroke-dasharray:none;stroke-dashoffset:0;stroke-opacity:1"><path
           id="path1575"
           d="m 491.39,439.03 0.01,0.04 0.01,0.04 0.01,0.04 0.02,0.04 0.01,0.04 0.01,0.05 0.01,0.04 0.01,0.05 0.01,0.04 0.01,0.05 0.01,0.05 0.01,0.05 0.01,0.05 v 0.06 0.05 0.03 l 0.01,0.03 c 0,0.45 -0.25,0.45 -1.24,0.45 h -21.03 c -1.19,0 -1.25,-0.05 -1.55,-1 l -2.73,-8.97 c -0.11,-0.25 -0.16,-0.59 -0.16,-0.7 0,-0.05 0,-0.55 0.61,-0.55 0.44,0 0.55,0.36 0.64,0.5 1.89,5.89 4.49,9.17 12.25,9.17 h 8.13 l -27.85,-31.14 c 0,-0.04 -0.2,-0.75 -0.2,-0.89 0,-0.45 0.34,-0.45 1.25,-0.45 h 21.67 c 1.19,0 1.24,0.05 1.55,1 l 3.53,11 c 0.05,0.2 0.2,0.56 0.2,0.75 0,0.25 -0.2,0.55 -0.65,0.55 -0.44,0 -0.5,-0.19 -0.85,-1.24 -2.18,-6.78 -4.57,-10.37 -13.04,-10.37 h -8.53 z"
           inkscape:connector-curvature="0"
           style="fill:#000000;stroke-width:0" /><path
           id="path1577"
           d="m 507.07,405.11 h -1.18 c -0.1,-0.77 -0.46,-2.83 -0.91,-3.18 -0.27,-0.2 -2.95,-0.2 -3.44,-0.2 h -6.42 c 3.66,3.23 4.88,4.2 6.97,5.84 2.58,2.07 4.98,4.22 4.98,7.54 0,4.21 -3.68,6.79 -8.15,6.79 -4.31,0 -7.25,-3.03 -7.25,-6.23 0,-1.78 1.5,-1.96 1.86,-1.96 0.83,0 1.84,0.6 1.84,1.85 0,0.62 -0.25,1.84 -2.06,1.84 1.08,2.47 3.45,3.24 5.09,3.24 3.49,0 5.3,-2.71 5.3,-5.53 0,-3.04 -2.16,-5.44 -3.28,-6.69 l -8.39,-8.3 c -0.36,-0.31 -0.36,-0.39 -0.36,-1.36 h 14.36 z"
           inkscape:connector-curvature="0"
           style="fill:#000000;stroke-width:0" /></g>    </g>
    <g
       id="g1644"
       transform="matrix(0.70529572,0,0,0.76302596,30.258989,74.520667)">
      <g
         word-spacing="normal"
         letter-spacing="normal"
         font-size-adjust="none"
         font-stretch="normal"
         font-weight="normal"
         font-variant="normal"
         font-style="normal"
         stroke-miterlimit="10.433"
         xml:space="preserve"
         transform="matrix(0.08510255,0,0,-0.08510255,-14.892946,86.761763)"
         id="g1642"
         style="font-style:normal;font-variant:normal;font-weight:normal;font-stretch:normal;letter-spacing:normal;word-spacing:normal;text-anchor:start;fill:none;fill-opacity:1;fill-rule:evenodd;stroke:#000000;stroke-linecap:butt;stroke-linejoin:miter;stroke-miterlimit:10.43299961;stroke-dasharray:none;stroke-dashoffset:0;stroke-opacity:1"><path
           id="path1638"
           d="m 491.39,439.03 0.01,0.04 0.01,0.04 0.01,0.04 0.02,0.04 0.01,0.04 0.01,0.05 0.01,0.04 0.01,0.05 0.01,0.04 0.01,0.05 0.01,0.05 0.01,0.05 0.01,0.05 v 0.06 0.05 0.03 l 0.01,0.03 c 0,0.45 -0.25,0.45 -1.24,0.45 h -21.03 c -1.19,0 -1.25,-0.05 -1.55,-1 l -2.73,-8.97 c -0.11,-0.25 -0.16,-0.59 -0.16,-0.7 0,-0.05 0,-0.55 0.61,-0.55 0.44,0 0.55,0.36 0.64,0.5 1.89,5.89 4.49,9.17 12.25,9.17 h 8.13 l -27.85,-31.14 c 0,-0.04 -0.2,-0.75 -0.2,-0.89 0,-0.45 0.34,-0.45 1.25,-0.45 h 21.67 c 1.19,0 1.24,0.05 1.55,1 l 3.53,11 c 0.05,0.2 0.2,0.56 0.2,0.75 0,0.25 -0.2,0.55 -0.65,0.55 -0.44,0 -0.5,-0.19 -0.85,-1.24 -2.18,-6.78 -4.57,-10.37 -13.04,-10.37 h -8.53 z"
           inkscape:connector-curvature="0"
           style="fill:#000000;stroke-width:0" /><path
           id="path1640"
           d="m 499,410.4 h 0.25 l 0.25,-0.02 0.24,-0.03 0.24,-0.04 0.23,-0.05 0.23,-0.06 0.22,-0.07 0.21,-0.08 0.21,-0.1 0.2,-0.1 0.2,-0.12 0.19,-0.12 0.18,-0.14 0.18,-0.15 0.16,-0.16 0.16,-0.17 0.15,-0.18 0.15,-0.19 0.13,-0.2 0.13,-0.22 0.11,-0.22 0.11,-0.24 0.1,-0.24 0.09,-0.26 0.08,-0.27 0.07,-0.28 0.06,-0.29 0.05,-0.3 0.04,-0.31 0.03,-0.32 0.01,-0.33 0.01,-0.35 c 0,-4.33 -2.52,-5.61 -4.53,-5.61 -1.39,0 -4.47,0.38 -5.93,2.44 1.63,0.06 2.02,1.22 2.02,1.95 0,1.11 -0.84,1.91 -1.92,1.91 -0.97,0 -1.95,-0.59 -1.95,-2.02 0,-3.28 3.62,-5.4 7.84,-5.4 4.84,0 8.19,3.25 8.19,6.73 0,2.72 -2.22,5.44 -6.07,6.24 3.66,1.33 4.99,3.93 4.99,6.06 0,2.75 -3.17,4.81 -7.03,4.81 -3.88,0 -6.83,-1.89 -6.83,-4.67 0,-1.19 0.76,-1.84 1.81,-1.84 1.08,0 1.77,0.79 1.77,1.76 0,1.02 -0.69,1.75 -1.77,1.81 1.22,1.55 3.61,1.93 4.91,1.93 1.56,0 3.76,-0.77 3.76,-3.8 0,-1.47 -0.48,-3.06 -1.39,-4.14 -1.15,-1.33 -2.12,-1.41 -3.87,-1.5 -0.88,-0.08 -0.94,-0.08 -1.11,-0.11 -0.08,0 -0.36,-0.06 -0.36,-0.45 0,-0.49 0.31,-0.49 0.91,-0.49 z"
           inkscape:connector-curvature="0"
           style="fill:#000000;stroke-width:0" /></g>    </g>
    <g
       id="g1711"
       transform="matrix(0.73087739,0,0,0.78580081,11.58106,81.548544)">
      <g
         word-spacing="normal"
         letter-spacing="normal"
         font-size-adjust="none"
         font-stretch="normal"
         font-weight="normal"
         font-variant="normal"
         font-style="normal"
         stroke-miterlimit="10.433"
         xml:space="preserve"
         transform="matrix(0.08510255,0,0,-0.08510255,-14.892946,86.761763)"
         id="g1709"
         style="font-style:normal;font-variant:normal;font-weight:normal;font-stretch:normal;letter-spacing:normal;word-spacing:normal;text-anchor:start;fill:none;fill-opacity:1;fill-rule:evenodd;stroke:#000000;stroke-linecap:butt;stroke-linejoin:miter;stroke-miterlimit:10.43299961;stroke-dasharray:none;stroke-dashoffset:0;stroke-opacity:1"><path
           id="path1705"
           d="m 491.39,439.03 0.01,0.04 0.01,0.04 0.01,0.04 0.02,0.04 0.01,0.04 0.01,0.05 0.01,0.04 0.01,0.05 0.01,0.04 0.01,0.05 0.01,0.05 0.01,0.05 0.01,0.05 v 0.06 0.05 0.03 l 0.01,0.03 c 0,0.45 -0.25,0.45 -1.24,0.45 h -21.03 c -1.19,0 -1.25,-0.05 -1.55,-1 l -2.73,-8.97 c -0.11,-0.25 -0.16,-0.59 -0.16,-0.7 0,-0.05 0,-0.55 0.61,-0.55 0.44,0 0.55,0.36 0.64,0.5 1.89,5.89 4.49,9.17 12.25,9.17 h 8.13 l -27.85,-31.14 c 0,-0.04 -0.2,-0.75 -0.2,-0.89 0,-0.45 0.34,-0.45 1.25,-0.45 h 21.67 c 1.19,0 1.24,0.05 1.55,1 l 3.53,11 c 0.05,0.2 0.2,0.56 0.2,0.75 0,0.25 -0.2,0.55 -0.65,0.55 -0.44,0 -0.5,-0.19 -0.85,-1.24 -2.18,-6.78 -4.57,-10.37 -13.04,-10.37 h -8.53 z"
           inkscape:connector-curvature="0"
           style="fill:#000000;stroke-width:0" /><path
           id="path1707"
           d="m 507.92,404.48 v 1.25 h -3.88 v 15.55 c 0,0.72 0,0.97 -0.76,0.97 -0.42,0 -0.57,0 -0.91,-0.49 l -11.53,-16.03 v -1.25 h 10.25 l 0.23,1.25 h -9.2 l 9.2,12.75 v -12.75 l -0.23,-1.25 v -2.86 c 0,-1.19 0,-1.61 -2.83,-1.61 h -0.94 v -1.25 c 1.74,0.06 3.97,0.14 5.22,0.14 1.3,0 3.52,-0.08 5.27,-0.14 v 1.25 h -0.94 c -2.83,0 -2.83,0.42 -2.83,1.61 v 2.86 z"
           inkscape:connector-curvature="0"
           style="fill:#000000;stroke-width:0" /></g>    </g>
    <g
       id="g1792"
       transform="matrix(0.55988398,0,0,0.64045515,39.858933,58.719793)">
      <g
         word-spacing="normal"
         letter-spacing="normal"
         font-size-adjust="none"
         font-stretch="normal"
         font-weight="normal"
         font-variant="normal"
         font-style="normal"
         stroke-miterlimit="10.433"
         xml:space="preserve"
         transform="matrix(0.08510255,0,0,-0.08510255,-14.892946,86.761763)"
         id="g1790"
         style="font-style:normal;font-variant:normal;font-weight:normal;font-stretch:normal;letter-spacing:normal;word-spacing:normal;text-anchor:start;fill:none;fill-opacity:1;fill-rule:evenodd;stroke:#000000;stroke-linecap:butt;stroke-linejoin:miter;stroke-miterlimit:10.43299961;stroke-dasharray:none;stroke-dashoffset:0;stroke-opacity:1"><path
           id="path1776"
           d="m 469.61,436.93 0.01,0.19 0.01,0.2 0.02,0.2 0.03,0.21 0.04,0.21 0.05,0.22 0.06,0.21 0.07,0.22 0.08,0.22 0.1,0.22 0.11,0.22 0.12,0.22 0.14,0.22 0.15,0.21 0.16,0.21 0.18,0.21 0.2,0.2 0.21,0.2 0.23,0.19 0.25,0.18 0.26,0.18 0.29,0.16 0.3,0.16 0.32,0.15 0.34,0.13 0.37,0.13 0.38,0.11 0.41,0.1 0.21,0.05 0.22,0.04 0.22,0.03 0.23,0.04 0.23,0.03 0.24,0.02 0.25,0.03 0.25,0.01 c 0.25,0.05 0.45,0.25 0.45,0.55 0,0.55 -0.41,0.55 -0.95,0.55 -4.99,0 -9.52,-2.53 -9.56,-6.22 v -11.36 c 0,-1.94 0,-3.55 -2,-5.19 -1.74,-1.43 -3.65,-1.54 -4.74,-1.59 -0.25,-0.05 -0.44,-0.25 -0.44,-0.55 0,-0.5 0.3,-0.5 0.8,-0.54 3.28,-0.21 5.67,-1.99 6.22,-4.44 0.16,-0.55 0.16,-0.64 0.16,-2.44 v -9.86 c 0,-2.09 0,-3.69 2.39,-5.58 1.93,-1.5 5.23,-2.04 7.17,-2.04 0.54,0 0.95,0 0.95,0.54 0,0.5 -0.31,0.5 -0.8,0.55 -3.14,0.2 -5.59,1.8 -6.23,4.33 -0.16,0.45 -0.16,0.54 -0.16,2.34 v 10.47 c 0,2.3 -0.39,3.14 -1.98,4.73 -1.05,1.05 -2.5,1.55 -3.89,1.94 4.09,1.14 5.87,3.44 5.87,6.33 z"
           inkscape:connector-curvature="0"
           style="fill:#000000;stroke-width:0" /><path
           id="path1778"
           d="m 516.35,439.03 0.01,0.04 0.01,0.04 0.01,0.04 0.01,0.04 0.01,0.04 0.02,0.05 0.01,0.04 0.01,0.05 0.01,0.04 0.01,0.05 0.01,0.05 0.01,0.05 v 0.05 l 0.01,0.06 v 0.05 0.03 0.03 c 0,0.45 -0.25,0.45 -1.23,0.45 h -21.03 c -1.19,0 -1.25,-0.05 -1.55,-1 l -2.73,-8.97 c -0.11,-0.25 -0.16,-0.59 -0.16,-0.7 0,-0.05 0,-0.55 0.61,-0.55 0.44,0 0.55,0.36 0.64,0.5 1.89,5.89 4.48,9.17 12.25,9.17 h 8.12 l -27.84,-31.14 c 0,-0.04 -0.2,-0.75 -0.2,-0.89 0,-0.45 0.34,-0.45 1.25,-0.45 h 21.67 c 1.19,0 1.23,0.05 1.55,1 l 3.53,11 c 0.04,0.2 0.2,0.56 0.2,0.75 0,0.25 -0.2,0.55 -0.66,0.55 -0.43,0 -0.5,-0.19 -0.84,-1.24 -2.19,-6.78 -4.58,-10.37 -13.05,-10.37 h -8.53 z"
           inkscape:connector-curvature="0"
           style="fill:#000000;stroke-width:0" /><path
           id="path1780"
           d="m 523.96,410.4 h 0.25 l 0.25,-0.02 0.24,-0.03 0.24,-0.04 0.23,-0.05 0.23,-0.06 0.22,-0.07 0.21,-0.08 0.21,-0.1 0.21,-0.1 0.19,-0.12 0.19,-0.12 0.18,-0.14 0.18,-0.15 0.16,-0.16 0.16,-0.17 0.15,-0.18 0.15,-0.19 0.13,-0.2 0.13,-0.22 0.11,-0.22 0.11,-0.24 0.1,-0.24 0.09,-0.26 0.08,-0.27 0.07,-0.28 0.06,-0.29 0.05,-0.3 0.04,-0.31 0.03,-0.32 0.01,-0.33 0.01,-0.35 c 0,-4.33 -2.52,-5.61 -4.53,-5.61 -1.39,0 -4.47,0.38 -5.92,2.44 1.62,0.06 2.01,1.22 2.01,1.95 0,1.11 -0.84,1.91 -1.92,1.91 -0.97,0 -1.95,-0.59 -1.95,-2.02 0,-3.28 3.62,-5.4 7.84,-5.4 4.84,0 8.19,3.25 8.19,6.73 0,2.72 -2.22,5.44 -6.07,6.24 3.66,1.33 4.99,3.93 4.99,6.06 0,2.75 -3.17,4.81 -7.03,4.81 -3.88,0 -6.83,-1.89 -6.83,-4.67 0,-1.19 0.77,-1.84 1.81,-1.84 1.08,0 1.77,0.79 1.77,1.76 0,1.02 -0.69,1.75 -1.77,1.81 1.22,1.55 3.61,1.93 4.91,1.93 1.56,0 3.77,-0.77 3.77,-3.8 0,-1.47 -0.49,-3.06 -1.4,-4.14 -1.15,-1.33 -2.12,-1.41 -3.87,-1.5 -0.88,-0.08 -0.94,-0.08 -1.11,-0.11 -0.08,0 -0.36,-0.06 -0.36,-0.45 0,-0.49 0.31,-0.49 0.91,-0.49 z"
           inkscape:connector-curvature="0"
           style="fill:#000000;stroke-width:0" /><path
           id="path1782"
           d="m 546.87,406.25 v 0.3 l -0.01,0.3 -0.02,0.29 -0.03,0.28 -0.03,0.27 -0.04,0.26 -0.04,0.26 -0.05,0.24 -0.06,0.24 -0.06,0.23 -0.08,0.22 -0.07,0.21 -0.09,0.2 -0.08,0.19 -0.1,0.19 -0.1,0.17 -0.11,0.16 -0.11,0.16 -0.12,0.14 -0.12,0.13 -0.13,0.13 -0.13,0.11 -0.14,0.1 -0.14,0.1 -0.15,0.08 -0.16,0.07 -0.16,0.06 -0.16,0.05 -0.17,0.04 -0.17,0.03 -0.18,0.01 -0.18,0.01 c -1.64,0 -2.64,-1.25 -2.64,-2.64 0,-1.34 1,-2.64 2.64,-2.64 0.6,0 1.25,0.2 1.75,0.64 0.14,0.11 0.21,0.16 0.25,0.16 0.05,0 0.1,-0.05 0.1,-0.75 0,-3.69 -1.74,-6.68 -3.39,-8.32 -0.55,-0.54 -0.55,-0.65 -0.55,-0.79 0,-0.36 0.25,-0.55 0.5,-0.55 0.55,0 4.53,3.83 4.53,9.66 z"
           inkscape:connector-curvature="0"
           style="fill:#000000;stroke-width:0" /><path
           id="path1784"
           d="m 594.71,439.03 0.01,0.04 0.01,0.04 0.01,0.04 0.01,0.04 0.01,0.04 0.02,0.05 0.01,0.04 0.01,0.05 0.01,0.04 0.01,0.05 0.01,0.05 0.01,0.05 v 0.05 l 0.01,0.06 v 0.05 0.03 0.03 c 0,0.45 -0.25,0.45 -1.23,0.45 h -21.03 c -1.19,0 -1.25,-0.05 -1.55,-1 l -2.74,-8.97 c -0.1,-0.25 -0.15,-0.59 -0.15,-0.7 0,-0.05 0,-0.55 0.61,-0.55 0.44,0 0.54,0.36 0.64,0.5 1.89,5.89 4.48,9.17 12.25,9.17 h 8.12 l -27.84,-31.14 c 0,-0.04 -0.2,-0.75 -0.2,-0.89 0,-0.45 0.34,-0.45 1.25,-0.45 h 21.67 c 1.19,0 1.23,0.05 1.55,1 l 3.53,11 c 0.04,0.2 0.2,0.56 0.2,0.75 0,0.25 -0.2,0.55 -0.66,0.55 -0.43,0 -0.5,-0.19 -0.84,-1.24 -2.19,-6.78 -4.58,-10.37 -13.05,-10.37 h -8.53 z"
           inkscape:connector-curvature="0"
           style="fill:#000000;stroke-width:0" /><path
           id="path1786"
           d="m 611.24,404.48 v 1.25 h -3.88 v 15.55 c 0,0.72 0,0.97 -0.76,0.97 -0.42,0 -0.57,0 -0.91,-0.49 l -11.53,-16.03 v -1.25 h 10.25 l 0.24,1.25 h -9.21 l 9.21,12.75 v -12.75 l -0.24,-1.25 v -2.86 c 0,-1.19 0,-1.61 -2.83,-1.61 h -0.93 v -1.25 c 1.73,0.06 3.96,0.14 5.21,0.14 1.3,0 3.52,-0.08 5.27,-0.14 v 1.25 h -0.94 c -2.83,0 -2.83,0.42 -2.83,1.61 v 2.86 z"
           inkscape:connector-curvature="0"
           style="fill:#000000;stroke-width:0" /><path
           id="path1788"
           d="m 626.12,400.37 v -0.19 l -0.01,-0.2 -0.02,-0.2 -0.03,-0.21 -0.04,-0.21 -0.05,-0.21 -0.06,-0.22 -0.07,-0.22 -0.09,-0.22 -0.09,-0.22 -0.11,-0.22 -0.12,-0.22 -0.14,-0.21 -0.15,-0.22 -0.16,-0.21 -0.18,-0.21 -0.2,-0.2 -0.21,-0.19 -0.23,-0.19 -0.25,-0.19 -0.26,-0.17 -0.29,-0.17 -0.3,-0.15 -0.32,-0.15 -0.35,-0.14 -0.36,-0.12 -0.38,-0.12 -0.41,-0.1 -0.21,-0.04 -0.22,-0.04 -0.22,-0.04 -0.23,-0.03 -0.23,-0.03 -0.24,-0.03 -0.25,-0.02 -0.25,-0.02 c -0.25,-0.05 -0.44,-0.25 -0.44,-0.55 0,-0.54 0.55,-0.54 0.99,-0.54 4.84,0 9.47,2.43 9.51,6.21 v 11.36 c 0,1.96 0,3.55 2,5.19 1.75,1.45 3.64,1.55 4.74,1.6 0.25,0.04 0.45,0.25 0.45,0.54 0,0.5 -0.31,0.5 -0.8,0.55 -3.29,0.2 -5.68,2 -6.23,4.44 -0.16,0.54 -0.16,0.64 -0.16,2.43 v 9.88 c 0,2.08 0,3.69 -2.39,5.58 -1.98,1.54 -5.42,2.03 -7.12,2.03 -0.44,0 -0.99,0 -0.99,-0.55 0,-0.5 0.3,-0.5 0.8,-0.55 3.13,-0.18 5.58,-1.79 6.22,-4.32 0.15,-0.46 0.15,-0.55 0.15,-2.35 v -10.47 c 0,-2.28 0.4,-3.12 1.99,-4.73 1.05,-1.03 2.5,-1.53 3.89,-1.94 -4.08,-1.14 -5.88,-3.44 -5.88,-6.33 z"
           inkscape:connector-curvature="0"
           style="fill:#000000;stroke-width:0" /></g>    </g>
    <g
       id="g1887"
       transform="matrix(0.54967857,0,0,0.62103923,69.160719,65.443445)">
      <g
         word-spacing="normal"
         letter-spacing="normal"
         font-size-adjust="none"
         font-stretch="normal"
         font-weight="normal"
         font-variant="normal"
         font-style="normal"
         stroke-miterlimit="10.433"
         xml:space="preserve"
         transform="matrix(0.08510255,0,0,-0.08510255,-14.892946,86.761763)"
         id="g1885"
         style="font-style:normal;font-variant:normal;font-weight:normal;font-stretch:normal;letter-spacing:normal;word-spacing:normal;text-anchor:start;fill:none;fill-opacity:1;fill-rule:evenodd;stroke:#000000;stroke-linecap:butt;stroke-linejoin:miter;stroke-miterlimit:10.43299961;stroke-dasharray:none;stroke-dashoffset:0;stroke-opacity:1"><path
           id="path1871"
           d="m 469.61,436.93 0.01,0.19 0.01,0.2 0.02,0.2 0.03,0.21 0.04,0.21 0.05,0.22 0.06,0.21 0.07,0.22 0.08,0.22 0.1,0.22 0.11,0.22 0.12,0.22 0.14,0.22 0.15,0.21 0.16,0.21 0.18,0.21 0.2,0.2 0.21,0.2 0.23,0.19 0.25,0.18 0.26,0.18 0.29,0.16 0.3,0.16 0.32,0.15 0.34,0.13 0.37,0.13 0.38,0.11 0.41,0.1 0.21,0.05 0.22,0.04 0.22,0.03 0.23,0.04 0.23,0.03 0.24,0.02 0.25,0.03 0.25,0.01 c 0.25,0.05 0.45,0.25 0.45,0.55 0,0.55 -0.41,0.55 -0.95,0.55 -4.99,0 -9.52,-2.53 -9.56,-6.22 v -11.36 c 0,-1.94 0,-3.55 -2,-5.19 -1.74,-1.43 -3.65,-1.54 -4.74,-1.59 -0.25,-0.05 -0.44,-0.25 -0.44,-0.55 0,-0.5 0.3,-0.5 0.8,-0.54 3.28,-0.21 5.67,-1.99 6.22,-4.44 0.16,-0.55 0.16,-0.64 0.16,-2.44 v -9.86 c 0,-2.09 0,-3.69 2.39,-5.58 1.93,-1.5 5.23,-2.04 7.17,-2.04 0.54,0 0.95,0 0.95,0.54 0,0.5 -0.31,0.5 -0.8,0.55 -3.14,0.2 -5.59,1.8 -6.23,4.33 -0.16,0.45 -0.16,0.54 -0.16,2.34 v 10.47 c 0,2.3 -0.39,3.14 -1.98,4.73 -1.05,1.05 -2.5,1.55 -3.89,1.94 4.09,1.14 5.87,3.44 5.87,6.33 z"
           inkscape:connector-curvature="0"
           style="fill:#000000;stroke-width:0" /><path
           id="path1873"
           d="m 516.35,439.03 0.01,0.04 0.01,0.04 0.01,0.04 0.01,0.04 0.01,0.04 0.02,0.05 0.01,0.04 0.01,0.05 0.01,0.04 0.01,0.05 0.01,0.05 0.01,0.05 v 0.05 l 0.01,0.06 v 0.05 0.03 0.03 c 0,0.45 -0.25,0.45 -1.23,0.45 h -21.03 c -1.19,0 -1.25,-0.05 -1.55,-1 l -2.73,-8.97 c -0.11,-0.25 -0.16,-0.59 -0.16,-0.7 0,-0.05 0,-0.55 0.61,-0.55 0.44,0 0.55,0.36 0.64,0.5 1.89,5.89 4.48,9.17 12.25,9.17 h 8.12 l -27.84,-31.14 c 0,-0.04 -0.2,-0.75 -0.2,-0.89 0,-0.45 0.34,-0.45 1.25,-0.45 h 21.67 c 1.19,0 1.23,0.05 1.55,1 l 3.53,11 c 0.04,0.2 0.2,0.56 0.2,0.75 0,0.25 -0.2,0.55 -0.66,0.55 -0.43,0 -0.5,-0.19 -0.84,-1.24 -2.19,-6.78 -4.58,-10.37 -13.05,-10.37 h -8.53 z"
           inkscape:connector-curvature="0"
           style="fill:#000000;stroke-width:0" /><path
           id="path1875"
           d="m 526.11,420.92 v 0.04 0.04 0.05 0.04 0.03 0.04 0.04 0.03 0.04 0.03 l -0.01,0.03 v 0.03 0.03 0.03 l -0.01,0.03 v 0.02 l -0.01,0.03 v 0.02 l -0.01,0.03 v 0.02 l -0.01,0.04 -0.02,0.04 -0.02,0.03 -0.01,0.03 -0.03,0.03 -0.02,0.03 -0.03,0.02 -0.03,0.02 -0.03,0.02 -0.04,0.01 -0.04,0.01 -0.04,0.02 h -0.03 -0.02 l -0.03,0.01 h -0.02 l -0.03,0.01 h -0.03 -0.03 -0.03 -0.03 l -0.04,0.01 h -0.03 -0.04 -0.03 -0.04 -0.04 -0.04 -0.04 -0.04 -0.05 -0.04 c -2.24,-2.2 -5.39,-2.23 -6.83,-2.23 v -1.25 c 0.84,0 3.14,0 5.04,0.97 v -17.77 c 0,-1.16 0,-1.61 -3.48,-1.61 h -1.31 v -1.25 c 0.62,0.03 4.91,0.14 6.2,0.14 1.08,0 5.47,-0.11 6.24,-0.14 v 1.25 h -1.33 c -3.49,0 -3.49,0.45 -3.49,1.61 z"
           inkscape:connector-curvature="0"
           style="fill:#000000;stroke-width:0" /><path
           id="path1877"
           d="m 546.87,406.25 v 0.3 l -0.01,0.3 -0.02,0.29 -0.03,0.28 -0.03,0.27 -0.04,0.26 -0.04,0.26 -0.05,0.24 -0.06,0.24 -0.06,0.23 -0.08,0.22 -0.07,0.21 -0.09,0.2 -0.08,0.19 -0.1,0.19 -0.1,0.17 -0.11,0.16 -0.11,0.16 -0.12,0.14 -0.12,0.13 -0.13,0.13 -0.13,0.11 -0.14,0.1 -0.14,0.1 -0.15,0.08 -0.16,0.07 -0.16,0.06 -0.16,0.05 -0.17,0.04 -0.17,0.03 -0.18,0.01 -0.18,0.01 c -1.64,0 -2.64,-1.25 -2.64,-2.64 0,-1.34 1,-2.64 2.64,-2.64 0.6,0 1.25,0.2 1.75,0.64 0.14,0.11 0.21,0.16 0.25,0.16 0.05,0 0.1,-0.05 0.1,-0.75 0,-3.69 -1.74,-6.68 -3.39,-8.32 -0.55,-0.54 -0.55,-0.65 -0.55,-0.79 0,-0.36 0.25,-0.55 0.5,-0.55 0.55,0 4.53,3.83 4.53,9.66 z"
           inkscape:connector-curvature="0"
           style="fill:#000000;stroke-width:0" /><path
           id="path1879"
           d="m 594.71,439.03 0.01,0.04 0.01,0.04 0.01,0.04 0.01,0.04 0.01,0.04 0.02,0.05 0.01,0.04 0.01,0.05 0.01,0.04 0.01,0.05 0.01,0.05 0.01,0.05 v 0.05 l 0.01,0.06 v 0.05 0.03 0.03 c 0,0.45 -0.25,0.45 -1.23,0.45 h -21.03 c -1.19,0 -1.25,-0.05 -1.55,-1 l -2.74,-8.97 c -0.1,-0.25 -0.15,-0.59 -0.15,-0.7 0,-0.05 0,-0.55 0.61,-0.55 0.44,0 0.54,0.36 0.64,0.5 1.89,5.89 4.48,9.17 12.25,9.17 h 8.12 l -27.84,-31.14 c 0,-0.04 -0.2,-0.75 -0.2,-0.89 0,-0.45 0.34,-0.45 1.25,-0.45 h 21.67 c 1.19,0 1.23,0.05 1.55,1 l 3.53,11 c 0.04,0.2 0.2,0.56 0.2,0.75 0,0.25 -0.2,0.55 -0.66,0.55 -0.43,0 -0.5,-0.19 -0.84,-1.24 -2.19,-6.78 -4.58,-10.37 -13.05,-10.37 h -8.53 z"
           inkscape:connector-curvature="0"
           style="fill:#000000;stroke-width:0" /><path
           id="path1881"
           d="m 610.4,405.11 h -1.19 c -0.1,-0.77 -0.46,-2.83 -0.91,-3.18 -0.27,-0.2 -2.95,-0.2 -3.44,-0.2 h -6.42 c 3.66,3.23 4.88,4.2 6.97,5.84 2.58,2.07 4.99,4.22 4.99,7.54 0,4.21 -3.69,6.79 -8.16,6.79 -4.31,0 -7.25,-3.03 -7.25,-6.23 0,-1.78 1.5,-1.96 1.86,-1.96 0.83,0 1.84,0.6 1.84,1.85 0,0.62 -0.25,1.84 -2.06,1.84 1.08,2.47 3.45,3.24 5.09,3.24 3.49,0 5.3,-2.71 5.3,-5.53 0,-3.04 -2.16,-5.44 -3.28,-6.69 l -8.39,-8.3 c -0.36,-0.31 -0.36,-0.39 -0.36,-1.36 h 14.36 z"
           inkscape:connector-curvature="0"
           style="fill:#000000;stroke-width:0" /><path
           id="path1883"
           d="m 626.12,400.37 v -0.19 l -0.01,-0.2 -0.02,-0.2 -0.03,-0.21 -0.04,-0.21 -0.05,-0.21 -0.06,-0.22 -0.07,-0.22 -0.09,-0.22 -0.09,-0.22 -0.11,-0.22 -0.12,-0.22 -0.14,-0.21 -0.15,-0.22 -0.16,-0.21 -0.18,-0.21 -0.2,-0.2 -0.21,-0.19 -0.23,-0.19 -0.25,-0.19 -0.26,-0.17 -0.29,-0.17 -0.3,-0.15 -0.32,-0.15 -0.35,-0.14 -0.36,-0.12 -0.38,-0.12 -0.41,-0.1 -0.21,-0.04 -0.22,-0.04 -0.22,-0.04 -0.23,-0.03 -0.23,-0.03 -0.24,-0.03 -0.25,-0.02 -0.25,-0.02 c -0.25,-0.05 -0.44,-0.25 -0.44,-0.55 0,-0.54 0.55,-0.54 0.99,-0.54 4.84,0 9.47,2.43 9.51,6.21 v 11.36 c 0,1.96 0,3.55 2,5.19 1.75,1.45 3.64,1.55 4.74,1.6 0.25,0.04 0.45,0.25 0.45,0.54 0,0.5 -0.31,0.5 -0.8,0.55 -3.29,0.2 -5.68,2 -6.23,4.44 -0.16,0.54 -0.16,0.64 -0.16,2.43 v 9.88 c 0,2.08 0,3.69 -2.39,5.58 -1.98,1.54 -5.42,2.03 -7.12,2.03 -0.44,0 -0.99,0 -0.99,-0.55 0,-0.5 0.3,-0.5 0.8,-0.55 3.13,-0.18 5.58,-1.79 6.22,-4.32 0.15,-0.46 0.15,-0.55 0.15,-2.35 v -10.47 c 0,-2.28 0.4,-3.12 1.99,-4.73 1.05,-1.03 2.5,-1.53 3.89,-1.94 -4.08,-1.14 -5.88,-3.44 -5.88,-6.33 z"
           inkscape:connector-curvature="0"
           style="fill:#000000;stroke-width:0" /></g>    </g>
    <g
       id="g2003"
       transform="matrix(0.49210941,0,0,0.59874737,52.118951,40.224603)">
      <g
         word-spacing="normal"
         letter-spacing="normal"
         font-size-adjust="none"
         font-stretch="normal"
         font-weight="normal"
         font-variant="normal"
         font-style="normal"
         stroke-miterlimit="10.433"
         xml:space="preserve"
         transform="matrix(0.08510255,0,0,-0.08510255,-14.892946,86.761763)"
         id="g2001"
         style="font-style:normal;font-variant:normal;font-weight:normal;font-stretch:normal;letter-spacing:normal;word-spacing:normal;text-anchor:start;fill:none;fill-opacity:1;fill-rule:evenodd;stroke:#000000;stroke-linecap:butt;stroke-linejoin:miter;stroke-miterlimit:10.43299961;stroke-dasharray:none;stroke-dashoffset:0;stroke-opacity:1"><path
           id="path1975"
           d="m 469.61,436.93 0.01,0.19 0.01,0.2 0.02,0.2 0.03,0.21 0.04,0.21 0.05,0.22 0.06,0.21 0.07,0.22 0.08,0.22 0.1,0.22 0.11,0.22 0.12,0.22 0.14,0.22 0.15,0.21 0.16,0.21 0.18,0.21 0.2,0.2 0.21,0.2 0.23,0.19 0.25,0.18 0.26,0.18 0.29,0.16 0.3,0.16 0.32,0.15 0.34,0.13 0.37,0.13 0.38,0.11 0.41,0.1 0.21,0.05 0.22,0.04 0.22,0.03 0.23,0.04 0.23,0.03 0.24,0.02 0.25,0.03 0.25,0.01 c 0.25,0.05 0.45,0.25 0.45,0.55 0,0.55 -0.41,0.55 -0.95,0.55 -4.99,0 -9.52,-2.53 -9.56,-6.22 v -11.36 c 0,-1.94 0,-3.55 -2,-5.19 -1.74,-1.43 -3.65,-1.54 -4.74,-1.59 -0.25,-0.05 -0.44,-0.25 -0.44,-0.55 0,-0.5 0.3,-0.5 0.8,-0.54 3.28,-0.21 5.67,-1.99 6.22,-4.44 0.16,-0.55 0.16,-0.64 0.16,-2.44 v -9.86 c 0,-2.09 0,-3.69 2.39,-5.58 1.93,-1.5 5.23,-2.04 7.17,-2.04 0.54,0 0.95,0 0.95,0.54 0,0.5 -0.31,0.5 -0.8,0.55 -3.14,0.2 -5.59,1.8 -6.23,4.33 -0.16,0.45 -0.16,0.54 -0.16,2.34 v 10.47 c 0,2.3 -0.39,3.14 -1.98,4.73 -1.05,1.05 -2.5,1.55 -3.89,1.94 4.09,1.14 5.87,3.44 5.87,6.33 z"
           inkscape:connector-curvature="0"
           style="fill:#000000;stroke-width:0" /><path
           id="path1977"
           d="m 516.35,439.03 0.01,0.04 0.01,0.04 0.01,0.04 0.01,0.04 0.01,0.04 0.02,0.05 0.01,0.04 0.01,0.05 0.01,0.04 0.01,0.05 0.01,0.05 0.01,0.05 v 0.05 l 0.01,0.06 v 0.05 0.03 0.03 c 0,0.45 -0.25,0.45 -1.23,0.45 h -21.03 c -1.19,0 -1.25,-0.05 -1.55,-1 l -2.73,-8.97 c -0.11,-0.25 -0.16,-0.59 -0.16,-0.7 0,-0.05 0,-0.55 0.61,-0.55 0.44,0 0.55,0.36 0.64,0.5 1.89,5.89 4.48,9.17 12.25,9.17 h 8.12 l -27.84,-31.14 c 0,-0.04 -0.2,-0.75 -0.2,-0.89 0,-0.45 0.34,-0.45 1.25,-0.45 h 21.67 c 1.19,0 1.23,0.05 1.55,1 l 3.53,11 c 0.04,0.2 0.2,0.56 0.2,0.75 0,0.25 -0.2,0.55 -0.66,0.55 -0.43,0 -0.5,-0.19 -0.84,-1.24 -2.19,-6.78 -4.58,-10.37 -13.05,-10.37 h -8.53 z"
           inkscape:connector-curvature="0"
           style="fill:#000000;stroke-width:0" /><path
           id="path1979"
           d="m 526.11,420.92 v 0.04 0.04 0.05 0.04 0.03 0.04 0.04 0.03 0.04 0.03 l -0.01,0.03 v 0.03 0.03 0.03 l -0.01,0.03 v 0.02 l -0.01,0.03 v 0.02 l -0.01,0.03 v 0.02 l -0.01,0.04 -0.02,0.04 -0.02,0.03 -0.01,0.03 -0.03,0.03 -0.02,0.03 -0.03,0.02 -0.03,0.02 -0.03,0.02 -0.04,0.01 -0.04,0.01 -0.04,0.02 h -0.03 -0.02 l -0.03,0.01 h -0.02 l -0.03,0.01 h -0.03 -0.03 -0.03 -0.03 l -0.04,0.01 h -0.03 -0.04 -0.03 -0.04 -0.04 -0.04 -0.04 -0.04 -0.05 -0.04 c -2.24,-2.2 -5.39,-2.23 -6.83,-2.23 v -1.25 c 0.84,0 3.14,0 5.04,0.97 v -17.77 c 0,-1.16 0,-1.61 -3.48,-1.61 h -1.31 v -1.25 c 0.62,0.03 4.91,0.14 6.2,0.14 1.08,0 5.47,-0.11 6.24,-0.14 v 1.25 h -1.33 c -3.49,0 -3.49,0.45 -3.49,1.61 z"
           inkscape:connector-curvature="0"
           style="fill:#000000;stroke-width:0" /><path
           id="path1981"
           d="m 546.87,406.25 v 0.3 l -0.01,0.3 -0.02,0.29 -0.03,0.28 -0.03,0.27 -0.04,0.26 -0.04,0.26 -0.05,0.24 -0.06,0.24 -0.06,0.23 -0.08,0.22 -0.07,0.21 -0.09,0.2 -0.08,0.19 -0.1,0.19 -0.1,0.17 -0.11,0.16 -0.11,0.16 -0.12,0.14 -0.12,0.13 -0.13,0.13 -0.13,0.11 -0.14,0.1 -0.14,0.1 -0.15,0.08 -0.16,0.07 -0.16,0.06 -0.16,0.05 -0.17,0.04 -0.17,0.03 -0.18,0.01 -0.18,0.01 c -1.64,0 -2.64,-1.25 -2.64,-2.64 0,-1.34 1,-2.64 2.64,-2.64 0.6,0 1.25,0.2 1.75,0.64 0.14,0.11 0.21,0.16 0.25,0.16 0.05,0 0.1,-0.05 0.1,-0.75 0,-3.69 -1.74,-6.68 -3.39,-8.32 -0.55,-0.54 -0.55,-0.65 -0.55,-0.79 0,-0.36 0.25,-0.55 0.5,-0.55 0.55,0 4.53,3.83 4.53,9.66 z"
           inkscape:connector-curvature="0"
           style="fill:#000000;stroke-width:0" /><path
           id="path1983"
           d="m 594.71,439.03 0.01,0.04 0.01,0.04 0.01,0.04 0.01,0.04 0.01,0.04 0.02,0.05 0.01,0.04 0.01,0.05 0.01,0.04 0.01,0.05 0.01,0.05 0.01,0.05 v 0.05 l 0.01,0.06 v 0.05 0.03 0.03 c 0,0.45 -0.25,0.45 -1.23,0.45 h -21.03 c -1.19,0 -1.25,-0.05 -1.55,-1 l -2.74,-8.97 c -0.1,-0.25 -0.15,-0.59 -0.15,-0.7 0,-0.05 0,-0.55 0.61,-0.55 0.44,0 0.54,0.36 0.64,0.5 1.89,5.89 4.48,9.17 12.25,9.17 h 8.12 l -27.84,-31.14 c 0,-0.04 -0.2,-0.75 -0.2,-0.89 0,-0.45 0.34,-0.45 1.25,-0.45 h 21.67 c 1.19,0 1.23,0.05 1.55,1 l 3.53,11 c 0.04,0.2 0.2,0.56 0.2,0.75 0,0.25 -0.2,0.55 -0.66,0.55 -0.43,0 -0.5,-0.19 -0.84,-1.24 -2.19,-6.78 -4.58,-10.37 -13.05,-10.37 h -8.53 z"
           inkscape:connector-curvature="0"
           style="fill:#000000;stroke-width:0" /><path
           id="path1985"
           d="m 610.4,405.11 h -1.19 c -0.1,-0.77 -0.46,-2.83 -0.91,-3.18 -0.27,-0.2 -2.95,-0.2 -3.44,-0.2 h -6.42 c 3.66,3.23 4.88,4.2 6.97,5.84 2.58,2.07 4.99,4.22 4.99,7.54 0,4.21 -3.69,6.79 -8.16,6.79 -4.31,0 -7.25,-3.03 -7.25,-6.23 0,-1.78 1.5,-1.96 1.86,-1.96 0.83,0 1.84,0.6 1.84,1.85 0,0.62 -0.25,1.84 -2.06,1.84 1.08,2.47 3.45,3.24 5.09,3.24 3.49,0 5.3,-2.71 5.3,-5.53 0,-3.04 -2.16,-5.44 -3.28,-6.69 l -8.39,-8.3 c -0.36,-0.31 -0.36,-0.39 -0.36,-1.36 h 14.36 z"
           inkscape:connector-curvature="0"
           style="fill:#000000;stroke-width:0" /><path
           id="path1987"
           d="m 625.47,406.25 v 0.3 l -0.02,0.3 -0.01,0.29 -0.03,0.28 -0.03,0.27 -0.04,0.26 -0.04,0.26 -0.05,0.24 -0.06,0.24 -0.07,0.23 -0.07,0.22 -0.07,0.21 -0.09,0.2 -0.09,0.19 -0.09,0.19 -0.1,0.17 -0.11,0.16 -0.11,0.16 -0.12,0.14 -0.12,0.13 -0.13,0.13 -0.13,0.11 -0.14,0.1 -0.15,0.1 -0.15,0.08 -0.15,0.07 -0.16,0.06 -0.16,0.05 -0.17,0.04 -0.17,0.03 -0.18,0.01 -0.18,0.01 c -1.64,0 -2.64,-1.25 -2.64,-2.64 0,-1.34 1,-2.64 2.64,-2.64 0.6,0 1.25,0.2 1.75,0.64 0.14,0.11 0.2,0.16 0.25,0.16 0.05,0 0.1,-0.05 0.1,-0.75 0,-3.69 -1.74,-6.68 -3.4,-8.32 -0.54,-0.54 -0.54,-0.65 -0.54,-0.79 0,-0.36 0.25,-0.55 0.5,-0.55 0.54,0 4.53,3.83 4.53,9.66 z"
           inkscape:connector-curvature="0"
           style="fill:#000000;stroke-width:0" /><path
           id="path1989"
           d="m 673.31,439.03 0.01,0.04 0.01,0.04 0.01,0.04 0.01,0.04 0.02,0.04 0.01,0.05 0.01,0.04 0.01,0.05 0.01,0.04 0.01,0.05 0.01,0.05 0.01,0.05 v 0.05 l 0.01,0.06 v 0.05 0.03 0.03 c 0,0.45 -0.25,0.45 -1.23,0.45 h -21.03 c -1.19,0 -1.25,-0.05 -1.55,-1 l -2.73,-8.97 c -0.11,-0.25 -0.16,-0.59 -0.16,-0.7 0,-0.05 0,-0.55 0.61,-0.55 0.44,0 0.55,0.36 0.64,0.5 1.89,5.89 4.48,9.17 12.25,9.17 h 8.13 l -27.85,-31.14 c 0,-0.04 -0.2,-0.75 -0.2,-0.89 0,-0.45 0.34,-0.45 1.25,-0.45 h 21.67 c 1.19,0 1.23,0.05 1.55,1 l 3.53,11 c 0.05,0.2 0.2,0.56 0.2,0.75 0,0.25 -0.2,0.55 -0.65,0.55 -0.44,0 -0.5,-0.19 -0.85,-1.24 -2.19,-6.78 -4.58,-10.37 -13.05,-10.37 h -8.53 z"
           inkscape:connector-curvature="0"
           style="fill:#000000;stroke-width:0" /><path
           id="path1991"
           d="m 680.91,410.4 h 0.26 l 0.24,-0.02 0.25,-0.03 0.24,-0.04 0.23,-0.05 0.22,-0.06 0.23,-0.07 0.21,-0.08 0.21,-0.1 0.2,-0.1 0.2,-0.12 0.19,-0.12 0.18,-0.14 0.17,-0.15 0.17,-0.16 0.16,-0.17 0.15,-0.18 0.14,-0.19 0.14,-0.2 0.12,-0.22 0.12,-0.22 0.11,-0.24 0.1,-0.24 0.09,-0.26 0.08,-0.27 0.07,-0.28 0.06,-0.29 0.05,-0.3 0.04,-0.31 0.02,-0.32 0.02,-0.33 0.01,-0.35 c 0,-4.33 -2.52,-5.61 -4.54,-5.61 -1.39,0 -4.46,0.38 -5.92,2.44 1.63,0.06 2.02,1.22 2.02,1.95 0,1.11 -0.85,1.91 -1.92,1.91 -0.97,0 -1.96,-0.59 -1.96,-2.02 0,-3.28 3.63,-5.4 7.85,-5.4 4.84,0 8.18,3.25 8.18,6.73 0,2.72 -2.21,5.44 -6.06,6.24 3.66,1.33 4.99,3.93 4.99,6.06 0,2.75 -3.18,4.81 -7.03,4.81 -3.88,0 -6.83,-1.89 -6.83,-4.67 0,-1.19 0.76,-1.84 1.81,-1.84 1.08,0 1.77,0.79 1.77,1.76 0,1.02 -0.69,1.75 -1.77,1.81 1.22,1.55 3.61,1.93 4.91,1.93 1.56,0 3.76,-0.77 3.76,-3.8 0,-1.47 -0.48,-3.06 -1.39,-4.14 -1.16,-1.33 -2.12,-1.41 -3.87,-1.5 -0.88,-0.08 -0.94,-0.08 -1.11,-0.11 -0.08,0 -0.36,-0.06 -0.36,-0.45 0,-0.49 0.31,-0.49 0.9,-0.49 z"
           inkscape:connector-curvature="0"
           style="fill:#000000;stroke-width:0" /><path
           id="path1993"
           d="m 703.95,406.25 v 0.3 l -0.02,0.3 -0.01,0.29 -0.03,0.28 -0.03,0.27 -0.04,0.26 -0.04,0.26 -0.05,0.24 -0.06,0.24 -0.07,0.23 -0.07,0.22 -0.07,0.21 -0.09,0.2 -0.09,0.19 -0.09,0.19 -0.1,0.17 -0.11,0.16 -0.11,0.16 -0.12,0.14 -0.12,0.13 -0.13,0.13 -0.13,0.11 -0.14,0.1 -0.15,0.1 -0.14,0.08 -0.16,0.07 -0.16,0.06 -0.16,0.05 -0.17,0.04 -0.17,0.03 -0.18,0.01 -0.18,0.01 c -1.64,0 -2.64,-1.25 -2.64,-2.64 0,-1.34 1,-2.64 2.64,-2.64 0.59,0 1.25,0.2 1.75,0.64 0.14,0.11 0.21,0.16 0.25,0.16 0.05,0 0.09,-0.05 0.09,-0.75 0,-3.69 -1.73,-6.68 -3.38,-8.32 -0.55,-0.54 -0.55,-0.65 -0.55,-0.79 0,-0.36 0.25,-0.55 0.5,-0.55 0.55,0 4.53,3.83 4.53,9.66 z"
           inkscape:connector-curvature="0"
           style="fill:#000000;stroke-width:0" /><path
           id="path1995"
           d="m 751.79,439.03 0.01,0.04 0.01,0.04 0.01,0.04 0.01,0.04 0.02,0.04 0.01,0.05 0.01,0.04 0.01,0.05 0.01,0.04 0.01,0.05 0.01,0.05 0.01,0.05 0.01,0.05 v 0.06 0.05 0.03 0.03 c 0,0.45 -0.25,0.45 -1.23,0.45 h -21.03 c -1.19,0 -1.25,-0.05 -1.55,-1 l -2.73,-8.97 c -0.11,-0.25 -0.16,-0.59 -0.16,-0.7 0,-0.05 0,-0.55 0.61,-0.55 0.44,0 0.55,0.36 0.64,0.5 1.89,5.89 4.49,9.17 12.25,9.17 h 8.12 l -27.84,-31.14 c 0,-0.04 -0.2,-0.75 -0.2,-0.89 0,-0.45 0.34,-0.45 1.25,-0.45 h 21.67 c 1.19,0 1.24,0.05 1.55,1 l 3.53,11 c 0.04,0.2 0.2,0.56 0.2,0.75 0,0.25 -0.2,0.55 -0.66,0.55 -0.43,0 -0.5,-0.19 -0.84,-1.24 -2.19,-6.78 -4.58,-10.37 -13.04,-10.37 h -8.54 z"
           inkscape:connector-curvature="0"
           style="fill:#000000;stroke-width:0" /><path
           id="path1997"
           d="m 768.32,404.48 v 1.25 h -3.88 v 15.55 c 0,0.72 0,0.97 -0.76,0.97 -0.43,0 -0.57,0 -0.91,-0.49 l -11.53,-16.03 v -1.25 h 10.25 l 0.23,1.25 h -9.2 l 9.2,12.75 v -12.75 l -0.23,-1.25 v -2.86 c 0,-1.19 0,-1.61 -2.83,-1.61 h -0.94 v -1.25 c 1.74,0.06 3.97,0.14 5.22,0.14 1.3,0 3.52,-0.08 5.27,-0.14 v 1.25 h -0.94 c -2.83,0 -2.83,0.42 -2.83,1.61 v 2.86 z"
           inkscape:connector-curvature="0"
           style="fill:#000000;stroke-width:0" /><path
           id="path1999"
           d="m 783.09,400.37 -0.01,-0.19 -0.01,-0.2 -0.02,-0.2 -0.03,-0.21 -0.04,-0.21 -0.05,-0.21 -0.06,-0.22 -0.07,-0.22 -0.09,-0.22 -0.09,-0.22 -0.11,-0.22 -0.12,-0.22 -0.14,-0.21 -0.15,-0.22 -0.16,-0.21 -0.18,-0.21 -0.2,-0.2 -0.21,-0.19 -0.23,-0.19 -0.25,-0.19 -0.26,-0.17 -0.29,-0.17 -0.3,-0.15 -0.32,-0.15 -0.34,-0.14 -0.37,-0.12 -0.38,-0.12 -0.41,-0.1 -0.21,-0.04 -0.22,-0.04 -0.22,-0.04 -0.23,-0.03 -0.23,-0.03 -0.24,-0.03 -0.25,-0.02 -0.25,-0.02 c -0.25,-0.05 -0.44,-0.25 -0.44,-0.55 0,-0.54 0.55,-0.54 0.99,-0.54 4.84,0 9.47,2.43 9.51,6.21 v 11.36 c 0,1.96 0,3.55 2,5.19 1.75,1.45 3.64,1.55 4.74,1.6 0.25,0.04 0.45,0.25 0.45,0.54 0,0.5 -0.31,0.5 -0.8,0.55 -3.29,0.2 -5.68,2 -6.23,4.44 -0.16,0.54 -0.16,0.64 -0.16,2.43 v 9.88 c 0,2.08 0,3.69 -2.39,5.58 -1.98,1.54 -5.42,2.03 -7.12,2.03 -0.44,0 -0.99,0 -0.99,-0.55 0,-0.5 0.3,-0.5 0.8,-0.55 3.13,-0.18 5.58,-1.79 6.22,-4.32 0.16,-0.46 0.16,-0.55 0.16,-2.35 v -10.47 c 0,-2.28 0.39,-3.12 1.98,-4.73 1.05,-1.03 2.5,-1.53 3.89,-1.94 -4.08,-1.14 -5.87,-3.44 -5.87,-6.33 z"
           inkscape:connector-curvature="0"
           style="fill:#000000;stroke-width:0" /></g>    </g>
  </g>
</svg>
